<?xml version="1.0" encoding="utf-8"?>
<!-- Generator: Adobe Illustrator 23.0.4, SVG Export Plug-In . SVG Version: 6.00 Build 0)  -->
<svg version="1.1" id="Layer_1" xmlns="http://www.w3.org/2000/svg" xmlns:xlink="http://www.w3.org/1999/xlink" x="0px" y="0px"
	 viewBox="0 0 800.5 801" style="enable-background:new 0 0 800.5 801;" xml:space="preserve">
<style type="text/css">
	.st0{fill:none;}
	.st1{fill:#FFFFFF;}
</style>
<g>
	<path class="st0" d="M546.48,341.44c0.01,0,0.01-0.01,0.01-0.01h-0.01V341.44z"/>
</g>
<g>
	<path class="st1" d="M22.42,780.42h26.36c24.81,0,37.23-14.58,37.23-43.77c0-24.84-12.41-37.27-37.23-37.27H22.42V780.42z
		 M52.12,799.65H0.25V680.22h51.87c37.37,0,56.07,18.82,56.07,56.45C108.19,778.65,89.49,799.65,52.12,799.65"/>
	<polygon class="st1" points="131.42,799.65 108.66,799.65 159.45,680.22 183.29,680.22 235.19,799.65 211.34,799.65 196.28,767.07 
		157.96,767.07 165.56,747.87 190.42,747.87 170.84,703.01 	"/>
	<polygon class="st1" points="222.65,680.22 313.45,680.22 313.45,699.42 279.15,699.42 279.15,799.65 256.98,799.65 256.98,699.42 
		222.65,699.42 	"/>
	<polygon class="st1" points="324.85,799.65 302.08,799.65 352.87,680.22 376.72,680.22 428.61,799.65 404.74,799.65 389.69,767.07 
		351.36,767.07 358.97,747.87 383.82,747.87 364.25,703.01 	"/>
	<path class="st1" d="M465.5,780.42h26.36c24.83,0,37.25-14.58,37.25-43.77c0-24.84-12.42-37.27-37.25-37.27H465.5V780.42z
		 M495.21,799.65h-51.87V680.22h51.87c37.4,0,56.07,18.82,56.07,56.45C551.28,778.65,532.6,799.65,495.21,799.65"/>
	<path class="st1" d="M626.4,781.26c24.09,0,36.13-13.89,36.13-41.68c0-27.36-12.04-41.03-36.13-41.03
		c-24.72,0-37.08,13.67-37.08,41.03C589.32,767.37,601.68,781.26,626.4,781.26 M566.3,740.1c0-40.49,20.04-60.73,60.1-60.73
		c39.45,0,59.15,20.24,59.15,60.73c0,40.26-19.7,60.4-59.15,60.4C588.11,800.5,568.09,780.36,566.3,740.1"/>
	<path class="st1" d="M778.07,751.32v27.97c-5.11,1.34-9.7,1.99-13.72,1.99c-27.11,0-40.66-14.35-40.66-43
		c0-26.48,14.36-39.7,43.08-39.7c12,0,23.16,2.23,33.48,6.69V685.2c-10.32-3.89-22.04-5.83-35.14-5.83
		c-42.95,0-64.44,19.62-64.44,58.91c0,41.47,21.11,62.23,63.34,62.23c14.53,0,26.6-2.12,36.25-6.36v-62.47h-35.82l-7.49,19.64
		L778.07,751.32L778.07,751.32z"/>
	<path class="st1" d="M349.36,166.26c21.81-14.87,49.91-9.02,45.2-4.55c-8.97,8.54,2.97,6.01,4.26,21.77
		c0.95,11.6-2.85,18-6.1,21.64c-6.8,0.89-15.08,2.56-25.04,5.79c-5.89,1.91-11.03,4.04-15.51,6.18c-1.18-0.78-2.47-1.71-4-3.03
		C332.77,200.74,333.28,177.22,349.36,166.26 M479.63,258.13c3.95-3.06,21.94-8.84,38.59-10.82c8.74-1.04,21.2-1.62,23.86-0.13
		c5.28,2.92,5.28,11.93,1.67,20.26c-5.26,12.11-12.71,25.47-21.13,26.57c-13.74,1.81-26.75-5.62-41.6-16.71
		C475.72,273.32,472.47,263.67,479.63,258.13 M504.7,140.3c20.3,9.45,17.64,27.42,18.2,37.97c0.16,3.03,0.1,5.07-0.16,6.49
		c-2.82-1.53-7.25-2.64-14.29-2.33c-2.06,0.09-4.07,0.33-6,0.64c-7.49-4.01-11.96-11.87-16.06-20.22c-0.37-0.77-0.66-1.45-0.93-2.13
		c-0.11-0.3-0.25-0.64-0.36-0.91c-0.05-0.15-0.09-0.28-0.14-0.42c-2.25-7.13-0.74-8.56,0.21-10.76c0.98-2.24,4.64-4.1-0.77-5.97
		c-0.46-0.17-1.05-0.28-1.7-0.39C486.28,137.83,497.03,136.74,504.7,140.3 M394.05,355.15c-21.87-14.05-44.5-34.18-54.39-45.32
		c-1.66-1.25-1.39-6.8-1.39-6.8c8.93,6.95,45.98,33.41,85.14,45.49c13.81,4.27,35.02,5.88,53.41-4.55
		c14.06-7.97,30.97-21.86,41.07-36.17l1.85,3.21c-0.07,2.13-4.72,12.49-7.07,16.66c4.27,2.46,7.46,3.12,12.21,4.43l32.44-5.06
		c11.64-18.8,19.98-49.13,11.09-78c-5.08-16.56-31.55-49.53-33.45-51.34c-6.66-6.39,1.12-31.09-12.07-58.02
		c-13.94-28.49-50.24-58.2-66-71.13c4.65,3.4,33.26,14.92,46.59,31.02c1.25-1.67,1.77-10.31,2.92-12.49
		c-11.44-14.99-12.34-41.69-12.34-48.82c0-13.08-6.66-27.91-6.66-27.91s11.46,9.07,14.42,24.68c3.5,18.51,10.96,33.07,20.82,45.39
		c18.66,23.25,35.51,35.18,44.04,26.58c10.19-10.32-10.33-56.49-36.57-82.26C499.5-5.3,491.48-1.43,473.53,4.99
		c-14.33,5.1-22.08,45.8-59.43,45c-6.33-0.73-22.63-1.14-30.68-1.07c4.2-5.86,7.79-10.4,7.79-10.4s-12.53,5.03-23.2,11.43
		l-0.82-1.24c3.6-7.6,7.48-12.39,7.48-12.39s-10.01,6.01-19.15,13.21c1.67-9.06,7.95-14.8,7.95-14.8s-12.65,2.29-28.77,20
		c-18.31,5-22.72,8.3-37.31,14.76c-23.72-5.17-34.93-13.53-45.58-28.9c-8.13-11.74-22.57-13.53-37.36-7.46
		c-21.52,8.92-48.77,21.11-48.77,21.11s8.86-0.34,18.12,0.07c-12.66,4.8-24.85,11.4-24.85,11.4s5.94-0.2,13.26-0.08
		c-5.06,4.2-7.85,6.21-12.66,9.39c-11.59,8.41-20.98,18.12-20.98,18.12s7.87-3.58,14.92-5.59c-4.93,11.32-14.72,19.64-12.92,33.5
		c1.72,12.66,17.26,38.71,37.31,54.7c1.72,1.4,29.12,26.72,49.76,16.32c20.65-10.39,28.78-19.64,32.18-33.85
		c3.99-16.31,1.71-28.62-6.8-64.01c-2.8-11.68-10.13-35.73-13.66-47.23l0.79-0.57c6.76,14.25,24.04,51.81,31,77.03
		c10.87,39.34,7.47,59.3,2.5,66.61c-14.99,22.07-53.43,24.98-70.92,12.75c-2.67,42.36,6.79,61,9.99,70.4
		c-1.6,10.8,5.41,30.85,5.41,30.85s0.79-9.12,3.99-13.92c0.86,10.72,6.26,23.45,6.26,23.45s-0.33-7.86,2.13-14.65
		c3.46,5.86,6,7.25,9.28,11.66c3.27,11.46,9.84,19.82,9.84,19.82s-1.07-6.14-0.48-12.54c16.03,15.4,18.79,37.87,20.39,55.12
		c4.49,47.48-74.85,85.21-90.22,114.9c-11.66,17.58-18.63,45.41,1.1,61.81c47.71,39.61,29.39,50.52,53.27,67.93
		c32.75,23.88,73.75,13.18,87.71-6.24c19.43-27.07,14.43-52.6,7.21-76.47c-5.63-18.68-20.96-49.7-39.93-61.7
		c-19.37-12.27-38.21-14.58-54.17-12.92l1.48-1.69c22.96-4.56,46.95-2.05,64.32,9.13c19.71,12.67,37.74,34.41,47.18,67.72
		c10.69-1.52,12.21-2.22,21.99-3.6l-22.04-171.6L394.05,355.15z M406.78,570.25l-2.55-23.79l49.57-75.61l56.27,16.45l48.4-80.83
		l58.02,38.26l44.07-92.43l15.67,168.33L406.78,570.25z M676.84,317.79L499.7,349.9c-4.38,5.67-15.24,15.59-20.45,18.18
		c-22.37,11.26-37.5,8.01-50.55,4.61c-8.4-2.13-13.27-3.33-20.25-6.47l-43.24,5.94l26.24,218.96l303.44-54.7L676.84,317.79z"/>
</g>
</svg>
